inDegrees=no
num_controls=7
num_derivatives=13
num_iterations=66
num_multipliers=7
num_parameters=0
num_slacks=7
num_states=26
objective=0.519046
objective_accelerations=0.038483
objective_balance=0.001887
objective_effort=0.041437
objective_height=0.425598
objective_ligament=0.011641
solver_duration=902.354219
status=Solve_Succeeded
success=true
DataType=double
version=3
OpenSimVersion=4.5
endheader
time	/jointset/ground_pelvis/pelvis_tilt/value	/jointset/ground_pelvis/pelvis_tx/value	/jointset/ground_pelvis/pelvis_ty/value	/jointset/hip_l/hip_flexion_l/value	/jointset/hip_l/hip_adduction_l/value	/jointset/hip_l/hip_rotation_l/value	/jointset/back/lumbar_extension/value	/jointset/patellofemoral_l/patellar_flexion_l/value	/jointset/knee_l/knee_flexion_l/value	/jointset/knee_l/knee_adduction_l/value	/jointset/knee_l/knee_rotation_l/value	/jointset/ankle_l/ankle_angle_l/value	/jointset/subtalar_l/subtalar_angle_l/value	/jointset/ground_pelvis/pelvis_tilt/speed	/jointset/ground_pelvis/pelvis_tx/speed	/jointset/ground_pelvis/pelvis_ty/speed	/jointset/hip_l/hip_flexion_l/speed	/jointset/hip_l/hip_adduction_l/speed	/jointset/hip_l/hip_rotation_l/speed	/jointset/back/lumbar_extension/speed	/jointset/patellofemoral_l/patellar_flexion_l/speed	/jointset/knee_l/knee_flexion_l/speed	/jointset/knee_l/knee_adduction_l/speed	/jointset/knee_l/knee_rotation_l/speed	/jointset/ankle_l/ankle_angle_l/speed	/jointset/subtalar_l/subtalar_angle_l/speed	/forceset/tau_hip_flexion_l	/forceset/tau_hip_adduction_l	/forceset/tau_hip_rotation_l	/forceset/tau_knee_flexion_l	/forceset/tau_ankle_angle_l	/forceset/tau_subtalar_angle_l	/forceset/tau_lumbar_extension	lambda_cid13_p0	lambda_cid13_p1	lambda_cid13_p2	lambda_cid13_p3	lambda_cid13_p4	lambda_cid13_p5	lambda_cid14_p0	/jointset/ground_pelvis/pelvis_tilt/accel	/jointset/ground_pelvis/pelvis_tx/accel	/jointset/ground_pelvis/pelvis_ty/accel	/jointset/hip_l/hip_flexion_l/accel	/jointset/hip_l/hip_adduction_l/accel	/jointset/hip_l/hip_rotation_l/accel	/jointset/back/lumbar_extension/accel	/jointset/patellofemoral_l/patellar_flexion_l/accel	/jointset/knee_l/knee_flexion_l/accel	/jointset/knee_l/knee_adduction_l/accel	/jointset/knee_l/knee_rotation_l/accel	/jointset/ankle_l/ankle_angle_l/accel	/jointset/subtalar_l/subtalar_angle_l/accel	gamma_cid13_p0	gamma_cid13_p1	gamma_cid13_p2	gamma_cid13_p3	gamma_cid13_p4	gamma_cid13_p5	gamma_cid14_p0
0.5	-0.0988622658818694	-0.04065875237897304	0.8321000294323451	0.8423540355090077	-0.3241417248228834	-0.1233667043155503	-0.7658663951291073	0.7843661491889593	0.7843661491886752	-0.1104316038861935	-0.1735794630484364	0.09579038432468286	0.001202197053808888	-0.1529003602919102	-0.180101748654741	-0.3164526526444373	1.382128480957159	-0.04272877582979021	0.4577514920428349	-0.8504761727817177	1.434302381839662	1.434302381839683	0.1289438966112184	0.001612043626922137	0.2983062884964773	0.05078025465919572	-0.2575308476995146	0.06040953774087752	-0.003891372208372136	-0.2168239885986583	0.1093245932715015	0.01246793627640703	0.3117831170469695	-10.25714905640623	-4.567904967321892	1.357965226203881	-7.580215747623316	-698.4573295402506	-44.27679101789466	-15.02149740831903	0.1932521525846521	0.5466360926702902	-0.1448606325845154	-1.207227282929178	0.2104626628508511	-0.3272843855292835	1.389488717067697	-1.056005115046594	-1.056005115046593	-0.2991681961608136	0.02091098960327308	-0.09596249325200885	0.2079028643409251	-4.426290567542909e-08	-5.946875957762108e-07	-2.806222975200477e-08	-7.712532347332372e-08	-7.309535641848138e-08	-1.127708451065454e-07	-7.372616993223015e-08
0.51	-0.1003814545464379	-0.04243230275466909	0.8289289869946409	0.8561127649340451	-0.3245588109150652	-0.1188072616110732	-0.7743005462741992	0.7986539064702142	0.7986539064700868	-0.10915722233361	-0.1735634928485359	0.09876785925396464	0.001719813395721433	-0.1509192683689733	-0.1745958094203543	-0.3176811884480948	1.369408547745599	-0.04068614389782887	0.4540539078928866	-0.8362436353159087	1.423013392729431	1.423013392729442	0.1259410952275946	0.001569823151650669	0.2971288203373148	0.05272827400127789	-0.2637836725420304	0.0611499884122764	-0.004075366230482139	-0.2190930416372962	0.1085764839973913	0.01289185355400922	0.3179130264997377	-10.70562083857777	-4.600522929533628	1.279821676805593	-7.489669404552864	-702.2736204309758	-44.08332119961597	-14.49859548726175	0.2032514678165363	0.5544354309329423	-0.1006671884346143	-1.335706516229145	0.201580145870716	-0.4035322808830012	1.456699400892778	-1.200683383245828	-1.200683383247421	-0.2996342625935271	-0.01860889572747075	-0.1376418313858684	0.1861339997545761	-6.515607130346374e-08	-4.914107081773069e-07	1.402313335584604e-07	-4.765227461523507e-08	-8.695684860402236e-08	-1.061040677111658e-07	-8.273164090684719e-08
0.52	-0.101880289540681	-0.04415042121960336	0.8257478957720643	0.8697380289917533	-0.3249553873503665	-0.1142873021183805	-0.7825890594167298	0.81282170634549	0.8128217063456146	-0.1079126284255029	-0.173548308919324	0.1017317589308287	0.002256486437178586	-0.1488296262191006	-0.1690153665023868	-0.3184624096188816	1.355435407495627	-0.03862684446582592	0.4498548496967381	-0.8213485722677037	1.410310900649816	1.410310900649817	0.1229863677187772	0.0014547894909832	0.295591238012643	0.05459159456786668	-0.2700364973845458	0.06189043908367709	-0.004259360252321417	-0.2213620946759297	0.1078283747233008	0.01331577083162661	0.3240429359525006	-11.15706692741084	-4.633452660339481	1.202678786057029	-7.420517401802315	-706.1513907987031	-43.90963257960212	-13.97267215321783	0.2149621979730222	0.5615368293858111	-0.05539770601043539	-1.457868690611507	0.2137961628592535	-0.4275791947693127	1.521993833547793	-1.338705708923242	-1.338705708923267	-0.2895534211993868	0.006348352524172824	-0.1679853263546218	0.1909631092420904	-1.057190400234307e-07	-3.209081982350646e-07	4.527410578661542e-07	7.255141975503668e-09	-1.201946545971941e-07	-9.776348226232587e-08	-1.016137856832595e-07
0.53	-0.103357639701918	-0.04581239424805897	0.8225612475328747	0.8832172784447475	-0.3253315202709448	-0.1098104969810052	-0.7907253645895169	0.8268554970069216	0.8268554970071267	-0.106698514384494	-0.1735338664423207	0.1046785034497365	0.002811093831355578	-0.1466185576346469	-0.1633702297325018	-0.3187902932123214	1.340207634622838	-0.03660145461414856	0.4454172386103673	-0.8058068358044866	1.396224645798618	1.396224645798552	0.1198495294833596	0.001411960685037475	0.2937048753017241	0.05631292010603992	-0.2762904087074488	0.06258230477057532	-0.004449951256749602	-0.2235409869788584	0.1068948302337764	0.01370788114536972	0.3301549954382962	-11.67131766892843	-4.64160682505438	1.121625535761029	-7.276945218744662	-710.0429830544385	-43.70195743543749	-13.44444100650657	0.2274441432552364	0.5673607366091774	-0.009969465844825795	-1.586274349171991	0.1965930172921856	-0.4652984650002789	1.58610752682146	-1.47695094202917	-1.476950942039092	-0.3238055722255697	-0.0127372708588639	-0.2068869310783867	0.1601375349252904	-1.249130953171927e-07	-2.121790659251779e-07	6.171315126282302e-07	3.789380737788653e-08	-1.336798655667403e-07	-8.581910663278546e-08	-1.092473569548344e-07
0.54	-0.104812226186425	-0.04741764418165591	0.8193736233017838	0.896538041616289	-0.3256874627687433	-0.105380757234441	-0.7987030836028561	0.8407417520060677	0.8407417520064097	-0.1055153800354083	-0.173520480008089	0.1076047993040132	0.003382398532679919	-0.1442768908670635	-0.1576707475306546	-0.318657607999125	1.323738151207647	-0.03458875992371109	0.440441771546848	-0.7896313403765837	1.380803768194976	1.380803768194845	0.116790429347467	0.001243580930899594	0.2915015050860811	0.05793105599702582	-0.2825443200303422	0.06327417045749156	-0.004640542261235893	-0.2257198792817718	0.1059612857442729	0.01409999145914079	0.3362670549240925	-12.18900199575342	-4.650212200421594	1.041846837659197	-7.159638610190981	-714.0056603057769	-43.53161274902735	-12.91476102040429	0.2410818346000638	0.5724059157776356	0.03671605531673126	-1.706210799091794	0.2112571306113117	-0.5351503901990408	1.648745626485815	-1.605630259411702	-1.605630259411672	-0.2740058012942053	-0.01876183711417599	-0.231386827300175	0.1703251798044657	-1.204649485223875e-07	-1.717949471659832e-07	6.176453287440888e-07	4.168193955059874e-08	-1.253111416165303e-07	-6.988755888842746e-08	-1.04435697965738e-07
